<?xml version="1.0" encoding="UTF-8" standalone="no"?><!DOCTYPE svg PUBLIC "-//W3C//DTD SVG 1.1//EN" "http://www.w3.org/Graphics/SVG/1.1/DTD/svg11.dtd"><svg width="100%" height="100%" viewBox="0 0 4167 5000" version="1.1" xmlns="http://www.w3.org/2000/svg" xmlns:xlink="http://www.w3.org/1999/xlink" xml:space="preserve" xmlns:serif="http://www.serif.com/" style="fill-rule:evenodd;clip-rule:evenodd;stroke-linecap:round;stroke-linejoin:round;stroke-miterlimit:1.5;"><g id="Слой1"><g id="Cloud-Joined" serif:id="Cloud Joined"><path d="M445.631,457.213c23.543,-52.809 80.351,-91.057 147.787,-94.882c-0.3,-4.658 -0.452,-9.368 -0.452,-14.115c-0,-113.033 86.326,-204.8 192.656,-204.8c14.46,-0 28.551,1.697 42.098,4.913c36.948,-53.636 98.785,-88.821 168.774,-88.821c85.068,0 158.092,51.978 189.011,125.866c112.424,0.812 203.477,105.128 203.477,233.501c0,128.875 -91.768,233.505 -204.8,233.505c-4.137,0 -8.246,-0.14 -12.32,-0.417c-33.259,68.206 -103.28,115.238 -184.2,115.238c-48.864,-0 -93.754,-17.15 -128.981,-45.76c-34.321,32.567 -79.671,52.384 -129.366,52.384c-71.752,0 -134.448,-41.313 -167.937,-102.644c-124.063,7.953 -233.806,-57.938 -256.359,-160.835c-0.006,-0.037 0.004,-0.076 0.029,-0.105c0.025,-0.028 0.062,-0.044 0.1,-0.042c0.008,-0.002 0.013,-0.001 0.013,-0.001c-13.619,-19.217 -23.226,-41.562 -27.476,-66.122c44.263,14.651 105.197,22.408 167.946,13.137Zm336.028,120.231c-14.222,-38.953 -47.571,-67.785 -88.171,-76.228c-64.754,-13.466 -128.259,28.174 -141.725,92.928c-5.45,26.205 -1.97,53.479 9.885,77.476c-11.855,-23.997 -15.335,-51.271 -9.885,-77.476c13.466,-64.754 76.971,-106.394 141.725,-92.928c40.6,8.443 73.949,37.275 88.171,76.228Zm291.596,-188.202c-38.409,36.898 -53.333,89.363 -42.218,141.451c15.97,74.837 84.492,126.576 160.841,121.449c-76.349,5.127 -144.871,-46.612 -160.841,-121.449c-11.115,-52.088 3.809,-104.553 42.218,-141.451Zm-247.105,-238.759c-21.672,35.354 -23.526,79.4 -4.902,116.45c29.706,59.094 101.799,82.954 160.893,53.249c23.914,-12.021 43.115,-31.702 54.543,-55.905c-11.428,24.203 -30.629,43.884 -54.543,55.905c-59.094,29.705 -131.187,5.845 -160.893,-53.249c-18.624,-37.05 -16.77,-81.096 4.902,-116.45Zm-60.378,497.07c3.408,-4.751 6.377,-9.833 8.857,-15.161c7.834,-16.828 10.5,-35.472 7.573,-52.96c2.927,17.488 0.261,36.132 -7.573,52.96c-2.48,5.328 -5.449,10.41 -8.857,15.161Zm265.776,-373.5c7.928,-13.412 11.059,-29.208 8.87,-44.753c2.189,15.545 -0.942,31.341 -8.87,44.753Zm88.149,95.549c-15.545,1.053 -34.862,9.039 -46.442,19.64c11.58,-10.601 30.897,-18.587 46.442,-19.64Z" style="fill:#fafafa;stroke:#00e57c;stroke-width:29.17px;"/><path d="M1119.7,369.602c47.334,-6.505 70.931,8.202 82.524,19.64c39.337,38.81 21.172,87.116 -22.181,90.225" style="fill:none;stroke:#00e57c;stroke-width:29.17px;"/></g></g><g id="Слой2"><g id="Cloud-2-Joined" serif:id="Cloud-2 Joined"><path d="M2684.03,488.285c-30.692,-25.39 -45.461,-61.254 -45.461,-95.519c0,-83.566 63.117,-183.188 195.598,-164.642c29.296,4.101 95.559,16.596 121.876,22.752c-0.223,-3.143 -0.336,-6.321 -0.336,-9.521c-0,-83.567 77.027,-151.412 171.903,-151.412c94.876,0 171.903,67.845 171.903,151.412c0,2.431 -0.065,4.85 -0.194,7.247c15.913,-4.711 32.819,-7.247 50.333,-7.247c94.876,-0 171.903,74.441 171.903,166.132c-0,91.691 -77.027,166.132 -171.903,166.132l-0.73,-0.002c-8.443,84.809 -89.133,151.414 -187.289,151.414c-58.236,-0 -110.324,-23.445 -144.832,-60.237c-35.519,45.992 -102.929,77.06 -180.173,77.06c-2.625,0 2.596,0.072 0,0l-2.461,0c-145.448,10.419 -218.384,-33.591 -274.537,-88.783c-78.451,-84.629 -114.724,-116.522 -247.86,-62.476c47.028,-102.326 211.149,-117.265 254.056,-90.068c29.98,19.004 85.253,-0.616 118.204,-12.242Zm-4.124,-3.262c1.354,1.102 2.727,2.188 4.124,3.262c-0.509,0.407 0.505,-0.413 -0,-0l-4.124,-3.262Z" style="fill:#fafafa;stroke:#00e57c;stroke-width:29.17px;"/><path d="M2955.85,250.406c24.872,231.076 274.167,105.782 162.905,-15.154m-103.307,428.665c-126.752,-182.805 84.335,-302.303 141.721,-181.581c11.169,23.496 9.285,75.939 -20.525,85.032m-456.73,-82.345c109.558,79.187 190.335,41.62 196.874,-30.314c5.151,-56.66 -35.603,-83.533 -79.274,-65.787" style="fill:none;stroke:#00e57c;stroke-width:29.17px;"/></g></g><g id="Слой3"><g id="Cloud-3-Joined" serif:id="Cloud-3 Joined"><path d="M1022.14,1714.73c-28.645,-15.585 -52.901,-41.086 -48.943,-76.05c6.02,-53.177 43.388,-86.803 82.496,-92.363c29.939,-4.256 61.874,-3.258 78.599,23.054c3.86,-1.616 -3.987,1.359 0,-0c25.083,-71.357 104.221,-126.961 183.301,-126.961c20.029,-0 39.306,3.28 57.348,9.343c28.974,-67.918 98.146,-91.654 175.861,-91.654c104.246,-0 186.525,61.774 186.525,167.242c-0,17.276 -2.271,34.019 -6.528,49.946c2.159,-0.122 -2.161,0.372 -0,0c49.079,-8.455 136.796,2.084 152.573,82.587c18.654,95.177 -59.177,129.982 -100.847,141.483c-9.803,96.455 -92.602,171.874 -193.154,171.874c-103.456,-0 -188.119,-79.838 -193.821,-180.293c-2.259,1.087 2.311,-0.993 -0,0c-21.758,81.246 -116.666,142.477 -203.728,138.761c-127.348,-5.435 -205.646,-44.702 -286.915,-120.519c-101.035,-94.257 -242.277,-73.76 -291.124,-56.648c179.033,-125.365 206.683,-173.632 408.357,-39.802Z" style="fill:#fafafa;stroke:#00e57c;stroke-width:29.17px;"/><path d="M1135.83,1565.79c-51.623,236.194 251.315,223.254 173.916,38.908" style="fill:none;stroke:#00e57c;stroke-width:29.17px;"/><path d="M1400.26,1822.05c-27.089,-184.42 68.134,-210.202 95.553,-214.325c86.935,-13.071 128.55,43.518 137.279,82.35c12.285,54.648 -7.797,123.44 -76.06,122.259c-67.847,-1.174 -78.283,-82.702 -41.261,-109.867" style="fill:none;stroke:#00e57c;stroke-width:29.17px;"/><path d="M1782.35,1801.8c-0.818,-55.081 -45.646,-58.408 -53.695,-58.696" style="fill:none;stroke:#00e57c;stroke-width:29.17px;"/><path d="M1020.76,1713.92c59.631,32.044 86.286,-23.787 59.375,-54.047" style="fill:none;stroke:#00e57c;stroke-width:29.17px;"/></g></g><g id="Слой4"><g id="Cloud-4-Joined" serif:id="Cloud-4 Joined"><path d="M3134.98,1779.61c18.906,88.761 96.265,155.306 188.706,155.306c58.835,-0 111.56,-26.956 146.995,-69.438c7.717,1.433 15.628,2.177 23.693,2.177c22.88,0 44.53,-5.991 63.789,-16.659c19.258,10.668 40.909,16.659 63.789,16.659c28.974,0 55.976,-9.607 78.642,-26.153c23.706,16.465 52.695,26.153 83.984,26.153c80.084,0 145.102,-63.468 145.102,-141.642c0,-78.175 -65.018,-141.642 -145.102,-141.642c-19.26,-0 -37.649,3.671 -54.472,10.335c-2.923,-3.688 -5.992,-7.226 -9.201,-10.607c0.848,-7.155 1.286,-14.463 1.286,-21.885c0,-90.403 -65.018,-163.798 -145.102,-163.798c-66.614,-0 -122.804,50.782 -139.819,119.884c-24.419,-21.069 -54.924,-33.588 -87.998,-33.588c-54.738,-0 -102.437,34.288 -127.146,84.858c-0.572,0.363 -0,0 -0,0c-68.139,-33.946 -141.157,-40.536 -220.784,16.294c-77.724,51.374 -167.487,51.107 -264.354,20.367c40.997,75.182 135.174,100.568 318.003,98.778c56.728,-0.555 68.304,36.351 79.989,74.601Z" style="fill:#fafafa;stroke:#00e57c;stroke-width:29.17px;"/><path d="M3720.57,1586.82c-10.038,50.778 -54.563,61.213 -74.918,61.694c-81.991,1.94 -93.098,-45.868 -93.391,-61.694c-0.764,-41.155 20.953,-71.176 57.32,-50.199" style="fill:none;stroke:#00e57c;stroke-width:29.17px;"/><path d="M3704.7,1844.84c-78.361,-63.785 -54.835,-128.673 -26.424,-153.835c40.785,-36.121 101.332,-15.287 123.741,50.616m-592.127,-177.286c42.361,16.351 63.013,50.886 69.179,67.933c10.594,29.29 1.795,74.073 -34.032,79.722c-16.626,2.622 -62.212,-19.279 -38.789,-58.425" style="fill:none;stroke:#00e57c;stroke-width:29.17px;"/><path d="M3467.93,1869.3c81.417,-115.924 26.976,-194.28 -36.822,-198.438c-80.65,-5.256 -119.406,60.613 -70.945,120.873" style="fill:none;stroke:#00e57c;stroke-width:29.17px;"/></g></g><g id="Слой11" serif:id="Слой1"><g id="Cloud-Joined1" serif:id="Cloud Joined"><path d="M2528.96,2957.21c23.543,-52.809 80.351,-91.057 147.787,-94.882c-0.3,-4.658 -0.452,-9.368 -0.452,-14.115c0,-113.033 86.326,-204.8 192.656,-204.8c14.461,-0 28.552,1.697 42.098,4.913c36.948,-53.636 98.785,-88.821 168.774,-88.821c85.069,0 158.093,51.978 189.011,125.866c112.424,0.812 203.477,105.128 203.477,233.501c0,128.875 -91.767,233.505 -204.8,233.505c-4.137,0 -8.245,-0.14 -12.32,-0.417c-33.258,68.206 -103.28,115.238 -184.2,115.238c-48.864,-0 -93.754,-17.15 -128.98,-45.76c-34.322,32.567 -79.672,52.384 -129.366,52.384c-71.753,0 -134.448,-41.313 -167.937,-102.644c-124.063,7.953 -233.807,-57.938 -256.359,-160.835c-0.007,-0.037 0.004,-0.076 0.029,-0.105c0.025,-0.028 0.062,-0.044 0.1,-0.042c0.008,-0.002 0.012,-0.001 0.012,-0.001c-13.618,-19.217 -23.226,-41.562 -27.476,-66.122c44.263,14.651 105.198,22.408 167.946,13.137Zm336.028,120.231c-14.222,-38.953 -47.571,-67.785 -88.17,-76.228c-64.755,-13.466 -128.26,28.174 -141.726,92.928c-5.449,26.205 -1.969,53.479 9.885,77.476c-11.854,-23.997 -15.334,-51.271 -9.885,-77.476c13.466,-64.754 76.971,-106.394 141.726,-92.928c40.599,8.443 73.948,37.275 88.17,76.228Zm291.597,-188.202c-38.409,36.898 -53.334,89.363 -42.218,141.451c15.97,74.837 84.491,126.576 160.84,121.449c-76.349,5.127 -144.87,-46.612 -160.84,-121.449c-11.116,-52.088 3.809,-104.553 42.218,-141.451Zm-247.106,-238.759c-21.672,35.354 -23.526,79.4 -4.901,116.45c29.705,59.094 101.798,82.954 160.892,53.249c23.914,-12.021 43.115,-31.702 54.543,-55.905c-11.428,24.203 -30.629,43.884 -54.543,55.905c-59.094,29.705 -131.187,5.845 -160.892,-53.249c-18.625,-37.05 -16.771,-81.096 4.901,-116.45Zm-60.378,497.07c3.408,-4.751 6.377,-9.833 8.857,-15.161c7.834,-16.828 10.5,-35.472 7.573,-52.96c2.927,17.488 0.261,36.132 -7.573,52.96c-2.48,5.328 -5.449,10.41 -8.857,15.161Zm265.777,-373.5c7.928,-13.412 11.058,-29.208 8.87,-44.753c2.188,15.545 -0.942,31.341 -8.87,44.753Zm88.148,95.549c-15.545,1.053 -34.862,9.039 -46.441,19.64c11.579,-10.601 30.896,-18.587 46.441,-19.64Z" style="fill:#fafafa;stroke:#00e57c;stroke-width:29.17px;"/><path d="M3203.03,2869.6c47.334,-6.505 70.931,8.202 82.525,19.64c39.336,38.81 21.171,87.116 -22.182,90.225" style="fill:none;stroke:#00e57c;stroke-width:29.17px;"/></g></g><g id="Слой21" serif:id="Слой2"><g id="Cloud-2-Joined1" serif:id="Cloud-2 Joined"><path d="M600.7,2988.28c-30.691,-25.39 -45.46,-61.254 -45.46,-95.519c0,-83.566 63.116,-183.188 195.598,-164.642c29.296,4.101 95.559,16.596 121.875,22.752c-0.222,-3.143 -0.335,-6.321 -0.335,-9.521c-0,-83.567 77.027,-151.412 171.903,-151.412c94.876,0 171.903,67.845 171.903,151.412c-0,2.431 -0.065,4.85 -0.195,7.247c15.913,-4.711 32.819,-7.247 50.333,-7.247c94.876,-0 171.904,74.441 171.904,166.132c-0,91.691 -77.028,166.132 -171.904,166.132l-0.729,-0.002c-8.444,84.809 -89.133,151.414 -187.29,151.414c-58.236,-0 -110.323,-23.445 -144.831,-60.237c-35.519,45.992 -102.93,77.06 -180.173,77.06c-2.626,0 2.596,0.072 -0,0l-2.461,0c-145.449,10.419 -218.385,-33.591 -274.538,-88.783c-78.45,-84.629 -114.723,-116.522 -247.859,-62.476c47.028,-102.326 211.148,-117.265 254.055,-90.068c29.981,19.004 85.254,-0.616 118.204,-12.242Zm-4.123,-3.262c1.353,1.102 2.727,2.188 4.123,3.262c-0.508,0.407 0.505,-0.413 0,-0l-4.123,-3.262Z" style="fill:#fafafa;stroke:#00e57c;stroke-width:29.17px;"/><path d="M872.513,2750.41c24.871,231.076 274.167,105.782 162.905,-15.154m-103.307,428.665c-126.752,-182.805 84.335,-302.303 141.721,-181.581c11.169,23.496 9.285,75.939 -20.525,85.032m-456.73,-82.345c109.558,79.187 190.335,41.62 196.874,-30.314c5.151,-56.66 -35.603,-83.533 -79.274,-65.787" style="fill:none;stroke:#00e57c;stroke-width:29.17px;"/></g></g><g id="Слой31" serif:id="Слой3"><g id="Cloud-3-Joined1" serif:id="Cloud-3 Joined"><path d="M3105.48,4214.73c-28.645,-15.585 -52.901,-41.086 -48.943,-76.05c6.02,-53.177 43.388,-86.803 82.496,-92.363c29.939,-4.256 61.874,-3.258 78.6,23.054c3.859,-1.616 -3.987,1.359 -0,-0c25.082,-71.357 104.22,-126.961 183.3,-126.961c20.029,-0 39.306,3.28 57.349,9.343c28.974,-67.918 98.145,-91.654 175.86,-91.654c104.246,-0 186.525,61.774 186.525,167.242c0,17.276 -2.271,34.019 -6.528,49.946c2.159,-0.122 -2.16,0.372 0,0c49.08,-8.455 136.796,2.084 152.574,82.587c18.653,95.177 -59.177,129.982 -100.848,141.483c-9.803,96.455 -92.602,171.874 -193.154,171.874c-103.456,-0 -188.119,-79.838 -193.821,-180.293c-2.258,1.087 2.311,-0.993 0,0c-21.757,81.246 -116.666,142.477 -203.728,138.761c-127.348,-5.435 -205.645,-44.702 -286.914,-120.519c-101.036,-94.257 -242.278,-73.76 -291.125,-56.648c179.033,-125.365 206.683,-173.632 408.357,-39.802Z" style="fill:#fafafa;stroke:#00e57c;stroke-width:29.17px;"/><path d="M3219.16,4065.79c-51.623,236.194 251.315,223.254 173.916,38.908" style="fill:none;stroke:#00e57c;stroke-width:29.17px;"/><path d="M3483.59,4322.05c-27.088,-184.42 68.134,-210.202 95.553,-214.325c86.935,-13.071 128.55,43.518 137.28,82.35c12.284,54.648 -7.798,123.44 -76.06,122.259c-67.848,-1.174 -78.284,-82.702 -41.262,-109.867" style="fill:none;stroke:#00e57c;stroke-width:29.17px;"/><path d="M3865.68,4301.8c-0.818,-55.081 -45.647,-58.408 -53.695,-58.696" style="fill:none;stroke:#00e57c;stroke-width:29.17px;"/><path d="M3104.1,4213.92c59.631,32.044 86.286,-23.787 59.376,-54.047" style="fill:none;stroke:#00e57c;stroke-width:29.17px;"/></g></g><g id="Слой41" serif:id="Слой4"><g id="Cloud-4-Joined1" serif:id="Cloud-4 Joined"><path d="M1051.65,4279.61c18.906,88.761 96.264,155.306 188.706,155.306c58.835,-0 111.56,-26.956 146.995,-69.438c7.716,1.433 15.628,2.177 23.693,2.177c22.88,0 44.53,-5.991 63.788,-16.659c19.259,10.668 40.909,16.659 63.789,16.659c28.975,0 55.977,-9.607 78.643,-26.153c23.706,16.465 52.695,26.153 83.984,26.153c80.084,0 145.102,-63.468 145.102,-141.642c-0,-78.175 -65.018,-141.642 -145.102,-141.642c-19.26,-0 -37.649,3.671 -54.472,10.335c-2.923,-3.688 -5.992,-7.226 -9.201,-10.607c0.848,-7.155 1.286,-14.463 1.286,-21.885c-0,-90.403 -65.018,-163.798 -145.102,-163.798c-66.614,-0 -122.804,50.782 -139.819,119.884c-24.419,-21.069 -54.924,-33.588 -87.999,-33.588c-54.737,-0 -102.436,34.288 -127.146,84.858c-0.571,0.363 0,0 0,0c-68.138,-33.946 -141.156,-40.536 -220.783,16.294c-77.724,51.374 -167.487,51.107 -264.354,20.367c40.997,75.182 135.174,100.568 318.002,98.778c56.729,-0.555 68.305,36.351 79.99,74.601Z" style="fill:#fafafa;stroke:#00e57c;stroke-width:29.17px;"/><path d="M1637.23,4086.82c-10.038,50.778 -54.563,61.213 -74.918,61.694c-81.991,1.94 -93.098,-45.868 -93.392,-61.694c-0.764,-41.155 20.953,-71.176 57.321,-50.199" style="fill:none;stroke:#00e57c;stroke-width:29.17px;"/><path d="M1621.36,4344.84c-78.36,-63.785 -54.834,-128.673 -26.423,-153.835c40.785,-36.121 101.331,-15.287 123.741,50.616m-592.127,-177.286c42.361,16.351 63.013,50.886 69.178,67.933c10.595,29.29 1.795,74.073 -34.032,79.722c-16.625,2.622 -62.212,-19.279 -38.788,-58.425" style="fill:none;stroke:#00e57c;stroke-width:29.17px;"/><path d="M1384.6,4369.3c81.418,-115.924 26.976,-194.28 -36.822,-198.438c-80.649,-5.256 -119.406,60.613 -70.944,120.873" style="fill:none;stroke:#00e57c;stroke-width:29.17px;"/></g></g></svg>