<?xml version="1.0" encoding="UTF-8" standalone="no"?><!DOCTYPE svg PUBLIC "-//W3C//DTD SVG 1.1//EN" "http://www.w3.org/Graphics/SVG/1.1/DTD/svg11.dtd"><svg width="100%" height="100%" viewBox="0 0 1667 834" version="1.1" xmlns="http://www.w3.org/2000/svg" xmlns:xlink="http://www.w3.org/1999/xlink" xml:space="preserve" xmlns:serif="http://www.serif.com/" style="fill-rule:evenodd;clip-rule:evenodd;stroke-linecap:round;stroke-linejoin:round;stroke-miterlimit:1.5;"><g id="Cloud-Trimmed" serif:id="Cloud Trimmed"><g id="Cloud-Joined" serif:id="Cloud Joined"><path d="M445.631,457.213c23.543,-52.809 80.351,-91.057 147.787,-94.882c-0.3,-4.658 -0.452,-9.368 -0.452,-14.115c-0,-113.033 86.326,-204.8 192.656,-204.8c14.46,-0 28.551,1.697 42.098,4.913c36.948,-53.636 98.785,-88.821 168.774,-88.821c85.068,0 158.092,51.978 189.011,125.866c112.424,0.812 203.477,105.128 203.477,233.501c0,128.875 -91.768,233.505 -204.8,233.505c-4.137,0 -8.246,-0.14 -12.32,-0.417c-33.259,68.206 -103.28,115.238 -184.2,115.238c-48.864,-0 -93.754,-17.15 -128.981,-45.76c-34.321,32.567 -79.671,52.384 -129.366,52.384c-71.752,0 -134.448,-41.313 -167.937,-102.644c-124.063,7.953 -233.806,-57.938 -256.359,-160.835c-0.006,-0.037 0.004,-0.076 0.029,-0.105c0.025,-0.028 0.062,-0.044 0.1,-0.042c0.008,-0.002 0.013,-0.001 0.013,-0.001c-13.619,-19.217 -23.226,-41.562 -27.476,-66.122c44.263,14.651 105.197,22.408 167.946,13.137Zm336.028,120.231c-14.222,-38.953 -47.571,-67.785 -88.171,-76.228c-64.754,-13.466 -128.259,28.174 -141.725,92.928c-5.45,26.205 -1.97,53.479 9.885,77.476c-11.855,-23.997 -15.335,-51.271 -9.885,-77.476c13.466,-64.754 76.971,-106.394 141.725,-92.928c40.6,8.443 73.949,37.275 88.171,76.228Zm293.275,-189.869c-38.409,36.898 -55.012,91.03 -43.897,143.118c15.97,74.837 84.492,126.576 160.841,121.449c-76.349,5.127 -144.871,-46.612 -160.841,-121.449c-11.115,-52.088 5.488,-106.22 43.897,-143.118Zm-248.784,-237.092c-21.672,35.354 -23.526,79.4 -4.902,116.45c29.706,59.094 101.799,82.954 160.893,53.249c23.914,-12.021 43.115,-31.702 54.543,-55.905c-11.428,24.203 -30.629,43.884 -54.543,55.905c-59.094,29.705 -131.187,5.845 -160.893,-53.249c-18.624,-37.05 -16.77,-81.096 4.902,-116.45Zm-60.378,497.07c3.408,-4.751 6.377,-9.833 8.857,-15.161c7.834,-16.828 10.5,-35.472 7.573,-52.96c2.927,17.488 0.261,36.132 -7.573,52.96c-2.48,5.328 -5.449,10.41 -8.857,15.161Zm265.776,-373.5c7.928,-13.412 11.059,-29.208 8.87,-44.753c2.189,15.545 -0.942,31.341 -8.87,44.753Zm83.626,97.179c-15.545,1.053 -30.339,7.409 -41.919,18.01c11.58,-10.601 26.374,-16.957 41.919,-18.01Z" style="fill:#fafafa;stroke:#00e57c;stroke-width:29.17px;"/></g></g></svg>