<?xml version="1.0" encoding="UTF-8" standalone="no"?><!DOCTYPE svg PUBLIC "-//W3C//DTD SVG 1.1//EN" "http://www.w3.org/Graphics/SVG/1.1/DTD/svg11.dtd"><svg width="100%" height="100%" viewBox="0 0 834 834" version="1.1" xmlns="http://www.w3.org/2000/svg" xmlns:xlink="http://www.w3.org/1999/xlink" xml:space="preserve" xmlns:serif="http://www.serif.com/" style="fill-rule:evenodd;clip-rule:evenodd;stroke-linejoin:round;stroke-miterlimit:2;"><path d="M416.667,0c229.964,0 416.666,186.702 416.666,416.667c0,229.964 -186.702,416.666 -416.666,416.666c-229.965,0 -416.667,-186.702 -416.667,-416.666c0,-229.965 186.702,-416.667 416.667,-416.667Zm-0,170.587c135.815,-0 246.079,110.265 246.079,246.08c0,135.815 -110.264,246.079 -246.079,246.079c-135.815,0 -246.08,-110.264 -246.08,-246.079c-0,-135.815 110.265,-246.08 246.08,-246.08Z" style="fill:#cc0023;"/><path d="M256.095,698.036l441.941,-441.941l-120.797,-120.798l-441.942,441.942l120.798,120.797Z" style="fill:#cc0023;"/></svg>