<?xml version="1.0" encoding="UTF-8" standalone="no"?><!DOCTYPE svg PUBLIC "-//W3C//DTD SVG 1.1//EN" "http://www.w3.org/Graphics/SVG/1.1/DTD/svg11.dtd"><svg width="100%" height="100%" viewBox="0 0 534 534" version="1.1" xmlns="http://www.w3.org/2000/svg" xmlns:xlink="http://www.w3.org/1999/xlink" xml:space="preserve" xmlns:serif="http://www.serif.com/" style="fill-rule:evenodd;clip-rule:evenodd;stroke-linejoin:round;stroke-miterlimit:2;"><g id="Слой1"><circle cx="266.667" cy="266.667" r="264.583"/><circle cx="266.667" cy="266.667" r="229.167" style="fill:#00e57c;"/><path d="M230.758,308.489c2.682,-2.682 6.89,-3.082 10.03,-0.954c4.556,3.086 9.733,5.271 15.282,6.432c3.672,0.709 6.325,3.924 6.325,7.664c0.105,25.368 0.105,113.068 0.105,113.068c0.001,9.911 -4.504,19.285 -12.244,25.477c-7.74,6.191 -17.875,8.528 -27.544,6.352c-23.921,-5.288 -46.289,-14.717 -66.266,-27.553c-8.35,-5.297 -13.841,-14.099 -14.928,-23.927c-1.086,-9.828 2.351,-19.617 9.343,-26.609c0,-0 61.978,-62.019 79.897,-79.95Z" style="fill:#f6f53c;"/><path d="M292.614,307.564c3.1,-2.083 7.24,-1.68 9.881,0.961c17.965,17.827 80.033,79.896 80.033,79.896c7.001,6.999 10.445,16.799 9.362,26.64c-1.083,9.841 -6.577,18.657 -14.933,23.966c-20.023,12.822 -42.411,22.27 -66.37,27.479c-9.647,2.165 -19.755,-0.17 -27.474,-6.348c-7.718,-6.178 -12.211,-15.529 -12.211,-25.416c-0,-0 -0.038,-87.858 -0.049,-113.165c-0.001,-3.772 2.661,-7.019 6.359,-7.758c5.58,-1.101 10.775,-3.27 15.402,-6.255Z" style="fill:#f6f53c;"/><path d="M313.967,277.263c0.709,-3.672 3.924,-6.325 7.664,-6.325c25.368,-0.105 113.068,-0.105 113.068,-0.105c9.911,-0 19.285,4.505 25.477,12.245c6.191,7.739 8.528,17.874 6.352,27.543c-5.288,23.921 -14.717,46.289 -27.553,66.266c-5.297,8.35 -14.099,13.842 -23.927,14.928c-9.828,1.086 -19.617,-2.351 -26.609,-9.343c-0,0 -62.019,-61.978 -79.95,-79.896c-2.682,-2.682 -3.082,-6.891 -0.954,-10.031c3.086,-4.556 5.271,-9.732 6.432,-15.282Z" style="fill:#f6f53c;"/><path d="M307.564,240.72c-2.083,-3.101 -1.68,-7.241 0.961,-9.882c17.827,-17.964 79.896,-80.033 79.896,-80.033c6.999,-7.001 16.799,-10.445 26.64,-9.362c9.841,1.084 18.657,6.577 23.966,14.933c12.822,20.023 22.27,42.411 27.479,66.37c2.165,9.647 -0.17,19.755 -6.348,27.474c-6.178,7.719 -15.529,12.211 -25.416,12.211c-0,0 -87.858,0.039 -113.165,0.05c-3.772,0 -7.019,-2.662 -7.758,-6.36c-1.101,-5.579 -3.27,-10.774 -6.255,-15.401Z" style="fill:#f6f53c;"/><path d="M277.263,219.366c-3.672,-0.709 -6.325,-3.923 -6.325,-7.663c-0.105,-25.369 -0.105,-113.068 -0.105,-113.068c-0,-9.912 4.505,-19.286 12.245,-25.477c7.739,-6.192 17.874,-8.529 27.543,-6.352c23.921,5.287 46.289,14.716 66.266,27.553c8.35,5.296 13.842,14.098 14.928,23.926c1.086,9.828 -2.351,19.618 -9.343,26.61c0,-0 -61.978,62.019 -79.896,79.949c-2.682,2.682 -6.891,3.083 -10.031,0.955c-4.556,-3.087 -9.732,-5.271 -15.282,-6.433Z" style="fill:#f6f53c;"/><path d="M240.713,225.727c-3.098,2.095 -7.247,1.698 -9.891,-0.946c-18.013,-17.864 -80.026,-79.877 -80.026,-79.877c-7.009,-7.008 -10.451,-16.822 -9.357,-26.673c1.095,-9.851 6.609,-18.67 14.985,-23.968c20.654,-13.176 43.138,-22.325 66.34,-27.374c9.649,-2.159 19.757,0.182 27.475,6.363c7.717,6.181 12.209,15.534 12.209,25.422c-0,-0 0.029,87.679 0.037,113.028c0,3.793 -2.693,7.052 -6.418,7.768c-5.403,1.039 -10.609,3.154 -15.354,6.257Z" style="fill:#f6f53c;"/><path d="M219.401,256.095c-0.72,3.665 -3.932,6.308 -7.667,6.308c-25.309,0.097 -113.087,0.097 -113.087,0.097c-9.9,0.001 -19.265,-4.493 -25.457,-12.218c-6.193,-7.724 -8.542,-17.843 -6.388,-27.505c5.092,-23.225 14.242,-45.737 27.501,-66.362c5.29,-8.352 14.089,-13.848 23.915,-14.938c9.827,-1.089 19.616,2.346 26.607,9.337c-0,0 62.152,62.098 80.054,79.985c2.668,2.667 3.082,6.845 0.989,9.983c-3.167,4.724 -5.306,9.93 -6.467,15.313Z" style="fill:#f6f53c;"/><path d="M225.727,292.62c2.095,3.098 1.698,7.247 -0.946,9.892c-17.864,18.012 -79.877,80.025 -79.877,80.025c-7.008,7.009 -16.822,10.452 -26.673,9.357c-9.851,-1.095 -18.67,-6.608 -23.968,-14.985c-13.176,-20.654 -22.325,-43.137 -27.374,-66.34c-2.159,-9.649 0.182,-19.757 6.363,-27.474c6.181,-7.718 15.534,-12.209 25.422,-12.209c-0,-0 87.679,-0.029 113.028,-0.038c3.793,0 7.052,2.693 7.768,6.418c1.039,5.404 3.154,10.609 6.257,15.354Z" style="fill:#f6f53c;"/><path d="M266.667,12.5c140.278,0 254.166,113.888 254.166,254.167c0,140.278 -113.888,254.166 -254.166,254.166c-140.279,0 -254.167,-113.888 -254.167,-254.166c0,-140.279 113.888,-254.167 254.167,-254.167Zm-0,27.462c125.121,0 226.704,101.583 226.704,226.705c0,125.121 -101.583,226.704 -226.704,226.704c-125.122,0 -226.705,-101.583 -226.705,-226.704c0,-125.122 101.583,-226.705 226.705,-226.705Z" style="fill:#f6f53c;"/></g></svg>